<svg width="145" height="145" viewBox="0 0 145 145" fill="none" xmlns="http://www.w3.org/2000/svg">
<path d="M75.0667 123.773C57.2267 117.863 38.2267 117.703 20.5767 122.903C22.1767 124.543 23.8667 126.113 25.6167 127.593C41.8167 123.803 58.9166 124.453 75.0667 129.803C86.3766 133.543 98.2567 135.003 110.027 134.193C113.527 132.053 116.817 129.623 119.887 126.943C104.967 129.623 89.5468 128.563 75.0568 123.773" fill="#37BBED"/>
<path d="M31.9268 132.393C34.7068 134.273 37.6367 135.953 40.6667 137.443C52.1767 136.713 63.8567 138.153 75.0767 141.873C77.5767 142.703 80.1167 143.403 82.6667 144.013C87.8467 143.273 92.8467 142.003 97.6067 140.243C89.9867 139.733 82.4067 138.273 75.0767 135.843C61.0067 131.183 46.2168 130.103 31.9368 132.403" fill="#37BBED"/>
<path d="M144.647 68.4835C142.497 28.5735 108.397 -2.03649 68.4767 0.113506C28.5567 2.26351 -2.0433 36.3635 0.106702 76.2835C0.966702 92.2535 6.95672 106.724 16.3767 118.224C35.1867 111.674 55.8067 111.364 75.0667 117.743C92.0467 123.364 110.297 123.854 127.537 119.204C139.087 105.594 145.677 87.7235 144.637 68.4935M29.5568 26.9635L39.1267 36.6335H29.5568V26.9635ZM24.2367 26.3135H26.3367V36.6335H16.1367C18.4967 32.9335 21.2167 29.4735 24.2467 26.3135M35.6967 100.553L36.9967 105.404L30.8267 106.224L35.6868 100.553H35.6967ZM30.7467 103.303L30.7267 96.1835L34.1467 99.3935L30.7467 103.303ZM30.7167 93.5335V93.4535L33.6768 93.0635L34.8467 97.4135L30.7167 93.5335ZM97.1467 116.094L91.1768 115.474C85.7268 114.714 80.3367 113.474 75.0767 111.734C72.4367 110.854 69.7667 110.114 67.0767 109.484L59.7567 88.7235L89.4967 80.4635L119.257 88.7335L109.507 116.163C105.387 116.424 101.257 116.404 97.1467 116.104M73.2767 70.1135H64.8767V61.7135H73.2767V70.1135ZM64.8867 48.0335H73.2868V56.4335H64.8867V48.0335ZM73.2767 75.4135V79.2435L64.8867 81.6635V75.4235H73.2767V75.4135ZM86.9667 70.1235H78.5667V61.7235H86.9667V70.1235ZM78.5667 48.0435H86.9667V56.4435H78.5667V48.0435ZM86.9667 75.4235L78.5667 77.7135V75.4235H86.9667ZM100.187 70.1335H91.7868V61.7335H100.187V70.1335ZM91.7868 48.0535H100.187V56.4535H91.7868V48.0535ZM100.187 75.4335V77.7235L91.7868 75.4335H100.187ZM113.877 70.1435H105.477V61.7435H113.877V70.1435ZM105.487 48.0635H113.887V56.4635H105.487V48.0635ZM113.877 75.4435V81.6835L105.487 79.2635V75.4335H113.877V75.4435ZM124.437 114.014C121.617 114.674 118.767 115.184 115.917 115.574L126.677 85.1735L119.147 83.0335V42.7735H99.2968V37.4835H113.877V32.1935H64.8867V37.4835H79.4467V42.7735H59.5967V83.0435L52.2267 85.1635L60.3967 108.234C56.9667 107.704 53.5267 107.304 50.0767 107.234C47.5467 107.184 44.6467 107.194 41.1467 107.434L40.7968 104.784L39.9767 104.894L36.3967 92.1535L36.0468 89.5435L33.6367 89.8635L33.5067 88.8735L32.5867 88.9935L32.6967 87.2635C32.7367 86.6835 32.2368 86.2235 31.6668 86.2935C31.0968 86.3735 30.7368 86.9535 30.9168 87.4935L31.4767 89.1335L30.5568 89.2535L30.6868 90.2435L28.2767 90.5635L28.6267 93.1835L28.4867 106.424L27.6668 106.534L28.0368 109.294C24.1168 110.124 19.4667 111.214 18.3967 111.553C11.1067 101.513 6.54667 89.3435 5.82667 76.0335C5.17667 64.0835 7.7367 52.7035 12.7267 42.7035H37.3567V48.0635H33.0167V59.9735H44.9268V48.0635H40.5867V42.7035H48.2968V37.9935L30.9068 20.3335H30.8467C41.3167 11.9835 54.3968 6.69351 68.7868 5.91351C105.527 3.93351 136.937 32.1135 138.907 68.8535C139.827 85.8435 134.297 101.684 124.447 114.004M41.5967 56.5435H36.3367V51.2835H41.5967V56.5435Z" fill="#37BBED"/>
</svg>
